# File created by Blade
# Date/Time:  Tue Jan 27 17:21:37 2015
# Frame Rate: 120.000 fps
#------------------------------------------------------
:FULLY-SPECIFIED
:DEGREES
4029
root -2.775769 37.679464 0.056031 28.498499 21.108196 15.932259
Spine -4.889882 8.095119 -4.314638
Head -5.740716 15.412863 -21.086463
LeftShoulder -5.051260 -10.327369 2.475969
LeftArm 0.398735 -20.507871 -40.461916
LeftForeArm -10.835512 -0.000000 70.858652
LeftHand -15.563917 -0.000000 45.472135
LeftHandThumb1 -26.253704 0.000000 33.147579
RightShoulder -2.746132 -20.119516 -6.560926
RightArm 12.482279 -16.041964 54.151799
RightForeArm 190.353722 0.000000 39.079430
RightHand -1.872375 -0.000000 6.279872
RightHandThumb1 -24.326973 -0.000000 -32.862282
LeftUpLeg -11.071523 9.014373 15.877592
LeftLeg 91.520459 -0.000000 -0.000000
LeftFoot 4.402785 -4.864725 -28.563625
LeftToeBase 10.989032 -0.000000 -0.000000
RightUpLeg -26.075842 -16.528181 -0.470319
RightLeg 9.358176 -0.000000 -0.000000
RightFoot -16.279553 -1.804543 7.549047
RightToeBase 10.834502 -0.000000 -0.000000
4030
root -2.758614 37.682532 0.063643 28.453624 21.128485 15.966174
Spine -4.907137 8.087611 -4.187059
Head -5.748251 15.434705 -21.210972
LeftShoulder -5.091663 -10.268072 2.411800
LeftArm 0.431920 -20.407084 -40.511397
LeftForeArm -10.939469 -0.000000 70.754550
LeftHand -15.498916 -0.000000 45.372169
LeftHandThumb1 -26.253704 0.000000 33.147579
RightShoulder -2.763766 -20.166504 -6.622320
RightArm 12.581670 -16.009080 54.061780
RightForeArm 190.325574 -0.000000 39.112029
RightHand -1.832579 -0.000000 6.433670
RightHandThumb1 -24.326973 -0.000000 -32.862282
LeftUpLeg -10.800178 8.909555 15.855939
LeftLeg 90.488372 -0.000000 -0.000000
LeftFoot 3.651213 -4.203819 -28.274179
LeftToeBase 10.926910 -0.000000 -0.000000
RightUpLeg -26.040889 -16.667470 -0.506158
RightLeg 9.460679 -0.000000 -0.000000
RightFoot -16.407599 -1.602580 7.850998
RightToeBase 10.919357 -0.000000 -0.000000
4031
root -2.740014 37.686281 0.069642 28.405913 21.142226 16.005874
Spine -4.913758 8.092531 -4.065172
Head -5.748902 15.441605 -21.325824
LeftShoulder -5.107925 -10.258288 2.373539
LeftArm 0.388415 -20.260147 -40.557942
LeftForeArm -11.147414 -0.000000 70.667660
LeftHand -15.288089 -0.000000 45.150959
LeftHandThumb1 -26.253704 0.000000 33.147579
RightShoulder -2.734522 -20.152697 -6.704036
RightArm 12.553643 -15.906504 54.059004
RightForeArm 190.424224 -0.000000 39.119121
RightHand -1.861247 -0.000000 6.510532
RightHandThumb1 -24.326973 -0.000000 -32.862282
LeftUpLeg -10.521095 8.801201 15.817407
LeftLeg 89.469336 -0.000000 -0.000000
LeftFoot 2.975424 -3.554272 -27.985196
LeftToeBase 10.382867 -0.000000 -0.000000
RightUpLeg -26.011814 -16.827005 -0.544171
RightLeg 9.577228 -0.000000 -0.000000
RightFoot -16.558656 -1.380069 8.152868
RightToeBase 11.131981 -0.000000 -0.000000
4032
root -2.720666 37.689406 0.073918 28.350458 21.138382 16.046719
Spine -4.905238 8.112133 -3.958786
Head -5.722923 15.472927 -21.358285
LeftShoulder -5.104061 -10.297214 2.340081
LeftArm 0.336902 -20.105854 -40.602006
LeftForeArm -11.223091 -0.000000 70.585097
LeftHand -15.290530 -0.000000 45.060023
LeftHandThumb1 -26.253704 0.000000 33.147579
RightShoulder -2.665256 -20.060377 -6.772280
RightArm 12.418633 -15.892360 54.006697
RightForeArm 190.530022 -0.000000 39.187741
RightHand -1.884755 -0.000000 6.499549
RightHandThumb1 -24.326973 -0.000000 -32.862282
LeftUpLeg -10.232906 8.684129 15.761581
LeftLeg 88.461048 -0.000000 -0.000000
LeftFoot 2.403829 -2.925989 -27.810884
LeftToeBase 10.156823 -0.000000 -0.000000
RightUpLeg -25.976735 -16.944029 -0.600658
RightLeg 9.688247 -0.000000 -0.000000
RightFoot -16.676993 -1.238894 8.367896
RightToeBase 11.174260 -0.000000 -0.000000
4033
root -2.701819 37.687955 0.077430 28.267015 21.128803 16.015784
Spine -4.897435 8.162145 -3.766010
Head -5.716328 15.488216 -21.432819
LeftShoulder -5.108332 -10.293848 2.292123
LeftArm 0.329539 -20.014893 -40.679348
LeftForeArm -11.270038 -0.000000 70.474937
LeftHand -15.338052 -0.000000 44.989636
LeftHandThumb1 -26.253704 0.000000 33.147579
RightShoulder -2.633421 -20.060273 -6.869686
RightArm 12.411166 -15.769050 53.973677
RightForeArm 190.441679 -0.000000 39.182689
RightHand -1.959307 -0.000000 6.458386
RightHandThumb1 -24.326973 -0.000000 -32.862282
LeftUpLeg -9.929407 8.645257 15.801156
LeftLeg 87.516384 -0.000000 -0.000000
LeftFoot 1.828891 -2.391889 -27.624718
LeftToeBase 10.230748 -0.000000 -0.000000
RightUpLeg -25.948702 -17.038244 -0.586475
RightLeg 9.798489 -0.000000 -0.000000
RightFoot -16.768790 -1.089613 8.529773
RightToeBase 11.148225 -0.000000 -0.000000
4034
root -2.680782 37.687792 0.081137 28.169539 21.111376 16.010291
Spine -4.850012 8.207921 -3.598646
Head -5.731009 15.506679 -21.514644
LeftShoulder -5.135014 -10.263387 2.244177
LeftArm 0.388849 -19.936662 -40.769064
LeftForeArm -11.370072 -0.000000 70.321495
LeftHand -15.288717 0.000000 44.852964
LeftHandThumb1 -26.253704 0.000000 33.147579
RightShoulder -2.626731 -20.059456 -6.911214
RightArm 12.418567 -15.748918 53.834682
RightForeArm 190.609288 -0.000000 39.216240
RightHand -1.943132 -0.000000 6.825730
RightHandThumb1 -24.326973 -0.000000 -32.862282
LeftUpLeg -9.607712 8.583201 15.794386
LeftLeg 86.598924 -0.000000 -0.000000
LeftFoot 1.354448 -1.928611 -27.458226
LeftToeBase 10.241381 -0.000000 -0.000000
RightUpLeg -25.887983 -17.151843 -0.601526
RightLeg 9.888378 -0.000000 -0.000000
RightFoot -16.851210 -0.935134 8.687670
RightToeBase 11.151865 -0.000000 -0.000000
4035
root -2.660538 37.690997 0.079426 28.179022 21.088395 16.044360
Spine -4.916812 8.226211 -3.498322
Head -5.718415 15.519271 -21.536180
LeftShoulder -5.177150 -10.185480 2.212223
LeftArm 0.496734 -19.866429 -40.862737
LeftForeArm -11.422919 0.000000 70.141421
LeftHand -15.291809 -0.000000 44.800031
LeftHandThumb1 -26.253704 0.000000 33.147579
RightShoulder -2.654140 -20.090549 -6.911905
RightArm 12.465930 -15.696227 53.667390
RightForeArm 190.687772 -0.000000 39.236649
RightHand -1.962122 -0.000000 6.794639
RightHandThumb1 -24.326973 -0.000000 -32.862282
LeftUpLeg -9.406997 8.490867 15.707961
LeftLeg 85.749945 -0.000000 -0.000000
LeftFoot 0.866927 -1.467833 -27.298521
LeftToeBase 10.137797 -0.000000 -0.000000
RightUpLeg -25.952975 -17.288461 -0.613192
RightLeg 10.011384 -0.000000 -0.000000
RightFoot -16.897694 -0.840796 8.713541
RightToeBase 11.174639 -0.000000 -0.000000
4036
root -2.638467 37.694086 0.076222 28.185967 21.039035 16.105438
Spine -4.965076 8.244894 -3.439236
Head -5.712684 15.531491 -21.544158
LeftShoulder -5.189367 -10.182086 2.188775
LeftArm 0.523284 -19.767735 -40.905953
LeftForeArm -11.480556 0.000000 69.954638
LeftHand -15.313503 0.000000 44.733837
LeftHandThumb1 -26.253704 0.000000 33.147579
RightShoulder -2.643285 -20.061078 -6.937755
RightArm 12.459607 -15.560394 53.614230
RightForeArm 190.604499 -0.000000 39.196227
RightHand -1.979442 0.000000 6.731937
RightHandThumb1 -24.326973 -0.000000 -32.862282
LeftUpLeg -9.193642 8.393867 15.570053
LeftLeg 84.956386 -0.000000 -0.000000
LeftFoot 0.473344 -1.056231 -27.158777
LeftToeBase 10.062554 -0.000000 -0.000000
RightUpLeg -26.005321 -17.434178 -0.649133
RightLeg 10.113985 -0.000000 -0.000000
RightFoot -16.956707 -0.769547 8.740669
RightToeBase 11.242767 -0.000000 -0.000000
4037
root -2.615090 37.697609 0.070212 28.209953 20.970909 16.162912
Spine -5.035259 8.268715 -3.382594
Head -5.701815 15.537976 -21.533447
LeftShoulder -5.201629 -10.164250 2.145207
LeftArm 0.563453 -19.701139 -40.935113
LeftForeArm -11.531867 -0.000000 69.762556
LeftHand -15.342980 -0.000000 44.716376
LeftHandThumb1 -26.253704 0.000000 33.147579
RightShoulder -2.615828 -20.051444 -6.968330
RightArm 12.451483 -15.442727 53.540523
RightForeArm 190.665480 0.000000 39.176950
RightHand -1.967501 -0.000000 6.750496
RightHandThumb1 -24.326973 -0.000000 -32.862282
LeftUpLeg -8.997259 8.305946 15.402107
LeftLeg 84.229746 -0.000000 -0.000000
LeftFoot 0.091344 -0.733394 -26.913135
LeftToeBase 9.873076 -0.000000 -0.000000
RightUpLeg -26.085501 -17.535233 -0.708030
RightLeg 10.232425 -0.000000 -0.000000
RightFoot -16.942901 -0.732716 8.563602
RightToeBase 11.074247 -0.000000 -0.000000
4038
root -2.591237 37.700020 0.064304 28.226019 20.888133 16.196422
Spine -5.104832 8.306566 -3.305596
Head -5.700417 15.529400 -21.542544
LeftShoulder -5.233707 -10.145397 2.109984
LeftArm 0.616994 -19.612046 -40.972562
LeftForeArm -11.537131 -0.000000 69.535610
LeftHand -15.375622 -0.000000 44.708510
LeftHandThumb1 -26.253704 0.000000 33.147579
RightShoulder -2.573789 -20.020833 -6.997549
RightArm 12.409137 -15.343036 53.448036
RightForeArm 190.699402 -0.000000 39.177984
RightHand -1.959520 -0.000000 6.854088
RightHandThumb1 -24.326973 -0.000000 -32.862282
LeftUpLeg -8.815373 8.256958 15.253145
LeftLeg 83.593378 -0.000000 -0.000000
LeftFoot -0.179927 -0.437289 -26.762730
LeftToeBase 9.954351 -0.000000 -0.000000
RightUpLeg -26.175476 -17.649579 -0.726477
RightLeg 10.341962 -0.000000 -0.000000
RightFoot -16.903947 -0.715187 8.369114
RightToeBase 10.981171 -0.000000 -0.000000
4039
root -2.566971 37.700902 0.056044 28.211209 20.797878 16.229499
Spine -5.127522 8.349286 -3.228332
Head -5.709491 15.575814 -21.515294
LeftShoulder -5.240871 -10.148479 2.133575
LeftArm 0.610580 -19.504025 -41.056289
LeftForeArm -11.712157 -0.000000 69.333057
LeftHand -15.209892 -0.000000 44.540255
LeftHandThumb1 -26.253704 0.000000 33.147579
RightShoulder -2.576280 -20.016272 -7.025169
RightArm 12.450448 -15.221407 53.350200
RightForeArm 190.764770 -0.000000 39.140831
RightHand -1.989294 0.000000 6.765196
RightHandThumb1 -24.326973 -0.000000 -32.862282
LeftUpLeg -8.627121 8.242319 15.099062
LeftLeg 83.061685 -0.000000 -0.000000
LeftFoot -0.408033 -0.175337 -26.610672
LeftToeBase 10.019291 -0.000000 -0.000000
RightUpLeg -26.249877 -17.758748 -0.746007
RightLeg 10.461646 -0.000000 -0.000000
RightFoot -16.832580 -0.752465 8.047018
RightToeBase 10.810463 -0.000000 -0.000000
